<svg width="32" height="32" viewBox="0 0 32 32" fill="none" xmlns="http://www.w3.org/2000/svg">
<path d="M18.5 4C20.433 4 22 5.567 22 7.5C22 8.03681 21.8791 8.54536 21.6631 9H24C25.6569 9 27 10.3431 27 12V14C27 15.3057 26.1645 16.413 25 16.8252V24C25 25.6569 23.6569 27 22 27H10C8.34315 27 7 25.6569 7 24V16.8252C5.83548 16.413 5 15.3057 5 14V12C5 10.3431 6.34315 9 8 9H10.3369C10.1209 8.54536 10 8.03681 10 7.5C10 5.567 11.567 4 13.5 4C14.4797 4 15.3647 4.40311 16 5.05176C16.6353 4.40311 17.5203 4 18.5 4ZM9 24C9 24.5523 9.44772 25 10 25H15V17H9V24ZM17 25H22C22.5523 25 23 24.5523 23 24V17H17V25ZM8 11C7.44772 11 7 11.4477 7 12V14C7 14.5523 7.44772 15 8 15H15V11H8ZM17 15H24C24.5523 15 25 14.5523 25 14V12C25 11.4477 24.5523 11 24 11H17V15ZM13.5 6C12.6716 6 12 6.67157 12 7.5C12 8.32843 12.6716 9 13.5 9H15V7.5C15 6.67157 14.3284 6 13.5 6ZM18.5 6C17.6716 6 17 6.67157 17 7.5V9H18.5C19.3284 9 20 8.32843 20 7.5C20 6.67157 19.3284 6 18.5 6Z" fill="#41A929"/>
</svg>
