<?xml version="1.0" encoding="UTF-8"?>
<svg width="22px" height="218px" viewBox="0 0 22 218" version="1.1" xmlns="http://www.w3.org/2000/svg" xmlns:xlink="http://www.w3.org/1999/xlink">
    <!-- Generator: Sketch 49.3 (51167) - http://www.bohemiancoding.com/sketch -->
    <title>Artboard</title>
    <desc>Created with Sketch.</desc>
    <defs></defs>
    <g id="Artboard" stroke="none" stroke-width="1" fill="none" fill-rule="evenodd">
        <g id="Page-1" fill="#FFFFFF">
            <path d="M6.53817517,207.115168 L12.8194122,209.271636 L6.53817517,211.426336 L6.53817517,213.847577 L15.4618248,210.601094 L15.4618248,208.027588 L6.53817517,204.780221 L6.53817517,207.115168 Z M13.8728883,200.150383 L8.1271117,200.150383 L8.1271117,198.683679 L6.53817517,198.683679 L6.53817517,203.910212 L8.1271117,203.910212 L8.1271117,202.446453 L13.8728883,202.446453 L13.8728883,203.910212 L15.4618248,203.910212 L15.4618248,198.683679 L13.8728883,198.683679 L13.8728883,200.150383 Z M14.9597753,188.971621 L10.542449,188.971621 L10.542449,193.055715 L12.2144691,193.055715 L12.2144691,191.293903 L13.9831736,191.293903 C13.9967745,191.379313 13.9967745,191.476799 14.0006182,191.578408 C14.0068273,191.68473 14.0068273,191.781037 14.0068273,191.87764 C14.0068273,192.888134 13.742793,193.658301 13.2227075,194.17636 C12.696413,194.697953 11.940382,194.958308 10.9557972,194.958308 C10.4700095,194.958308 10.0495652,194.882617 9.67613262,194.738302 C9.30358703,194.590748 8.99608908,194.396071 8.75896085,194.139545 C8.51237115,193.881841 8.33053342,193.587322 8.2028035,193.247742 C8.09370086,192.926127 8.02480949,192.562102 8.02480949,192.158611 C8.02480949,191.801948 8.07536925,191.47945 8.16229656,191.174917 C8.258094,190.865967 8.36128321,190.595893 8.49049149,190.359689 C8.60284651,190.167073 8.72555002,189.954431 8.8730899,189.749151 C9.03127394,189.530029 9.14983805,189.364509 9.22759955,189.258188 L9.22759955,188.998717 L7.1395702,188.998717 C6.82201943,189.649014 6.61238862,190.231867 6.51008642,190.76318 C6.40246213,191.293903 6.35633744,191.855845 6.35633744,192.436048 C6.35633744,193.978149 6.77678175,195.188033 7.62683618,196.051857 C8.48162135,196.914798 9.60014515,197.343617 10.990095,197.343617 C12.4415445,197.343617 13.58727,196.918332 14.4136708,196.061576 C15.2430282,195.205115 15.6525327,194.025861 15.6525327,192.508205 C15.6525327,191.863208 15.5792063,191.209081 15.4245703,190.549948 C15.27023,189.895821 15.115594,189.364509 14.9597753,188.971621 Z M6.53817517,187.311417 L8.1271117,187.311417 L8.1271117,185.842357 L13.8728883,185.842357 L13.8728883,187.311417 L15.4618248,187.311417 L15.4618248,182.092247 L13.8728883,182.092247 L13.8728883,183.548937 L8.1271117,183.548937 L8.1271117,182.092247 L6.53817517,182.092247 L6.53817517,187.311417 Z M6.53817517,180.237661 L15.4618248,180.237661 L15.4618248,173.817736 L13.738358,173.817736 L13.738358,177.941591 L6.53817517,177.941591 L6.53817517,180.237661 Z M6.53817517,170.147146 L15.4618248,173.431327 L15.4618248,171.106394 L13.6422648,170.484076 L13.6422648,167.244072 L15.4618248,166.614391 L15.4618248,164.225547 L6.53817517,167.507961 L6.53817517,170.147146 Z M12.0246482,167.785398 L12.0246482,169.934503 L8.88462107,168.859804 L12.0246482,167.785398 Z M15.4618248,159.809825 C15.4618248,159.098267 15.4157001,158.4839 15.3080759,157.963191 C15.2078433,157.451611 15.0195009,156.973312 14.7563536,156.532712 C14.4065747,155.954571 13.9009771,155.484224 13.2389695,155.107829 C12.5825796,154.724954 11.8428105,154.53499 11.0181838,154.53499 C10.1500934,154.53499 9.39938447,154.711407 8.75896085,155.067185 C8.1271117,155.41943 7.6215141,155.906859 7.24512479,156.513863 C7.01834505,156.869642 6.84744715,157.311126 6.726222,157.846266 C6.60677087,158.366682 6.53817517,158.994596 6.53817517,159.7144 L6.53817517,162.949986 L15.4618248,162.949986 L15.4618248,159.809825 Z M13.7833,160.650382 L8.22024809,160.650382 L8.22024809,160.071063 C8.22024809,159.580983 8.24005806,159.213424 8.28529574,158.971329 C8.32225463,158.724228 8.40474687,158.487434 8.52035427,158.250641 C8.75748249,157.792075 9.08479041,157.463392 9.49429489,157.248098 C9.90941712,157.031038 10.410284,156.927367 10.9945301,156.927367 C11.5876463,156.927367 12.079643,157.031038 12.4793904,157.211873 C12.8782507,157.410967 13.2020106,157.716384 13.4388431,158.130772 C13.5701211,158.378462 13.6558657,158.630865 13.7111562,158.874727 C13.7599419,159.132431 13.7833,159.523552 13.7833,160.071063 L13.7833,160.650382 Z M11.0054699,144.150545 C9.57205639,144.150545 8.43638367,144.55168 7.59993011,145.367792 C6.76791162,146.183021 6.35633744,147.308083 6.35633744,148.725897 C6.35633744,150.155198 6.76791162,151.269658 7.59993011,152.088421 C8.43638367,152.89717 9.57205639,153.298894 11.0054699,153.298894 C12.4314917,153.298894 13.5565202,152.89717 14.3982959,152.088421 C15.2394802,151.269658 15.6525327,150.155198 15.6525327,148.725897 C15.6525327,147.297186 15.2394802,146.169473 14.3982959,145.354244 C13.5565202,144.55168 12.4314917,144.150545 11.0054699,144.150545 Z M13.8113887,149.551729 C13.6966683,149.82033 13.5228137,150.05624 13.2842071,150.257985 C13.0509226,150.450601 12.7451987,150.611113 12.3726531,150.731866 C11.9947854,150.847907 11.5370866,150.91005 11.0054699,150.91005 C10.4871585,150.91005 10.0262072,150.847907 9.63089494,150.724503 C9.2394264,150.60375 8.92926741,150.432635 8.70130498,150.241787 C8.45708065,150.021192 8.28884379,149.787933 8.18121951,149.531996 C8.08187402,149.289607 8.02480949,149.011286 8.02480949,148.716767 C8.02480949,148.434913 8.08187402,148.170729 8.1894983,147.897121 C8.29978362,147.634116 8.47511659,147.403507 8.71845391,147.200878 C8.94996439,147.002667 9.25923636,146.836853 9.62734689,146.718751 C10.0016665,146.590929 10.4629134,146.53232 10.9998522,146.53232 C11.5036757,146.53232 11.9323988,146.588279 12.3111535,146.687237 C12.678377,146.800921 13.0003629,146.965557 13.2706063,147.188214 C13.5112825,147.387309 13.6910506,147.623218 13.8042926,147.880039 C13.920787,148.150113 13.9769645,148.422248 13.9769645,148.716767 C13.9769645,149.013937 13.9243351,149.295203 13.8113887,149.551729 Z M7.4568253,137.399287 C7.88998347,137.399287 8.23473598,137.28678 8.50497937,137.028193 C8.77551843,136.77255 8.96267824,136.398511 9.07739863,135.88163 C9.13180212,135.617741 9.168761,135.377119 9.20394587,135.14386 C9.24120042,134.91767 9.28614243,134.702376 9.34054592,134.509761 C9.40736759,134.242338 9.49961697,134.056496 9.62734689,133.931326 C9.75389412,133.800854 9.94992407,133.742245 10.2086363,133.742245 C10.5179083,133.742245 10.7559235,133.875662 10.9413093,134.143085 C11.1275821,134.416988 11.2168748,134.786314 11.2168748,135.26638 C11.2168748,135.602426 11.1500531,135.966157 11.0181838,136.357279 C10.8724179,136.744571 10.6870321,137.080617 10.4277286,137.37867 L10.4277286,137.436396 L11.4149744,137.436396 C11.5740455,137.080617 11.6961576,136.744571 11.7703711,136.408525 C11.8537503,136.072479 11.8907092,135.696083 11.8907092,135.26638 C11.8907092,134.877026 11.8428105,134.540391 11.7422823,134.260303 C11.6464849,133.988168 11.5190506,133.746662 11.3481527,133.529602 C11.1961778,133.341404 11.0054699,133.193556 10.7775075,133.087234 C10.5495451,132.978262 10.3263134,132.93055 10.0912549,132.93055 C9.6722889,132.93055 9.34054592,133.038639 9.11169648,133.259528 C8.8730899,133.478356 8.69391321,133.803505 8.58096684,134.235858 C8.52597202,134.454686 8.47511659,134.715924 8.41627804,135.027525 C8.36749231,135.335592 8.32225463,135.571796 8.28529574,135.739378 C8.2028035,136.05628 8.10345801,136.271574 7.96242289,136.402045 C7.82138777,136.52486 7.62683618,136.586709 7.38083782,136.586709 C7.10231564,136.586709 6.8755359,136.459771 6.69902025,136.212964 C6.53107907,135.963507 6.43055089,135.623926 6.43055089,135.209538 C6.43055089,134.833143 6.49914659,134.454686 6.63042456,134.098023 C6.75342374,133.742245 6.91988657,133.447726 7.10882041,133.220651 L7.10882041,133.168522 L6.17923045,133.168522 C6.06244036,133.42976 5.971965,133.732231 5.88444636,134.088893 C5.81200693,134.420522 5.76233419,134.800746 5.76233419,135.209538 C5.76233419,135.847466 5.91785719,136.366998 6.24250407,136.783153 C6.55798514,137.195774 6.96335022,137.399287 7.4568253,137.399287 Z M10.699746,130.681309 C10.5495451,130.786747 10.3851519,130.85537 10.2006532,130.907499 C10.0123107,130.948732 9.75744218,130.963458 9.44077842,130.963458 L5.87616756,130.963458 L5.87616756,131.750707 L9.40736759,131.750707 C9.84436948,131.750707 10.2222372,131.702701 10.5315091,131.609927 C10.835459,131.518037 11.1003803,131.356935 11.3174029,131.151656 C11.5036757,130.963458 11.6464849,130.729021 11.7422823,130.455413 C11.8410365,130.195058 11.8907092,129.871676 11.8907092,129.505884 C11.8907092,129.146276 11.8428105,128.830257 11.7541092,128.561656 C11.6600857,128.288048 11.5054498,128.055672 11.3174029,127.864529 C11.1003803,127.641284 10.835459,127.487251 10.5261871,127.395361 C10.2006532,127.297875 9.83076861,127.257526 9.40736759,127.257526 L5.87616756,127.257526 L5.87616756,128.03859 L9.45911003,128.03859 C9.75034607,128.03859 9.99072668,128.055672 10.1888263,128.103384 C10.3777602,128.149329 10.5495451,128.210589 10.699746,128.316027 C10.8724179,128.436485 11.0054699,128.597882 11.0921015,128.791675 C11.1816899,128.987825 11.2168748,129.228447 11.2168748,129.505884 C11.2168748,129.776252 11.1816899,130.015696 11.0867795,130.219209 C10.9998522,130.413002 10.8724179,130.571453 10.699746,130.681309 Z M5.87616756,125.763136 L11.7594312,125.763136 L11.7594312,124.988552 L9.57205639,124.988552 L9.57205639,124.203953 C9.57205639,123.786031 9.52327066,123.432019 9.4174204,123.157233 C9.31807491,122.886864 9.16255191,122.637407 8.96267824,122.438312 C8.79798944,122.280744 8.60432486,122.157341 8.38109318,122.071636 C8.1587485,121.971794 7.925464,121.928499 7.65847299,121.928499 C7.31579018,121.928499 7.03194592,121.986225 6.80871423,122.112279 C6.58075181,122.239217 6.39329633,122.406798 6.24871316,122.627687 C6.11773086,122.815002 6.03080355,123.034713 5.971965,123.27504 C5.91046541,123.520964 5.87616756,123.820195 5.87616756,124.169494 L5.87616756,125.763136 Z M6.54349725,124.213672 C6.54349725,123.963331 6.56626393,123.758051 6.60677087,123.600189 C6.63840768,123.432019 6.69902025,123.295067 6.77678175,123.175198 C6.8755359,123.02735 6.9994221,122.91396 7.14755332,122.84357 C7.29775424,122.780543 7.4722002,122.746379 7.67591759,122.746379 C7.85302458,122.746379 8.00677356,122.771707 8.14780867,122.815002 C8.28884379,122.870666 8.41627804,122.956371 8.54400796,123.079774 C8.66316341,123.206712 8.75896085,123.359862 8.81247732,123.555422 C8.8730899,123.758051 8.90383969,124.018406 8.90383969,124.327356 L8.90383969,124.988552 L6.54349725,124.988552 L6.54349725,124.213672 Z M5.87616756,120.897978 L11.7594312,120.897978 L11.7594312,117.033594 L11.0758396,117.033594 L11.0758396,120.12516 L8.86658513,120.12516 L8.86658513,117.033594 L8.18121951,117.033594 L8.18121951,120.12516 L6.56182886,120.12516 L6.56182886,117.033594 L5.87616756,117.033594 L5.87616756,120.897978 Z M5.87616756,115.80221 L11.7594312,115.80221 L11.7594312,115.032043 L9.42569919,115.032043 L9.42569919,113.935843 L11.7594312,111.982005 L11.7594312,110.960613 L9.19596275,113.160375 C9.04930988,112.791048 8.83140027,112.496529 8.54400796,112.286537 C8.26252906,112.073895 7.91097612,111.970224 7.48047899,111.970224 C7.16292822,111.970224 6.91249479,112.029717 6.69902025,112.146052 C6.49914659,112.255907 6.32470063,112.433502 6.19371833,112.644083 C6.07515422,112.83876 5.99384467,113.047869 5.94860699,113.281128 C5.89686454,113.517038 5.87616756,113.808906 5.87616756,114.167335 L5.87616756,115.80221 Z M6.54349725,114.106075 C6.54349725,113.897262 6.56182886,113.719667 6.59317,113.561215 C6.63042456,113.41425 6.67921029,113.270231 6.75342374,113.160375 C6.84744715,113.026958 6.9532974,112.924171 7.08782776,112.872041 C7.21644469,112.810781 7.36280189,112.776617 7.5345868,112.776617 C7.75722714,112.776617 7.9408389,112.810781 8.08187402,112.86674 C8.2273442,112.917102 8.34945637,113.009876 8.4606287,113.122677 C8.58096684,113.256683 8.65695432,113.41425 8.70840109,113.589195 C8.74565565,113.778276 8.77167471,113.993569 8.77167471,114.235958 L8.77167471,115.032043 L6.54349725,115.032043 L6.54349725,114.106075 Z M5.87616756,110.435485 L6.48495437,110.435485 L6.48495437,109.667085 L11.1500531,109.667085 L11.1500531,110.435485 L11.7594312,110.435485 L11.7594312,108.124984 L11.1500531,108.124984 L11.1500531,108.890733 L6.48495437,108.890733 L6.48495437,108.124984 L5.87616756,108.124984 L5.87616756,110.435485 Z M5.87616756,106.81084 L11.7594312,106.81084 L11.7594312,106.072187 L6.49914659,106.072187 L11.7594312,103.300469 L11.7594312,102.337392 L5.87616756,102.337392 L5.87616756,103.06073 L10.6834841,103.06073 L5.87616756,105.593004 L5.87616756,106.81084 Z M5.87616756,101.548375 L6.56182886,101.548375 L6.56182886,99.4729002 L11.7594312,99.4729002 L11.7594312,98.6877126 L6.56182886,98.6877126 L6.56182886,96.6031073 L5.87616756,96.6031073 L5.87616756,101.548375 Z M5.87616756,95.8005431 L11.763275,95.8005431 L11.763275,91.9388103 L11.0832314,91.9388103 L11.0832314,95.0259582 L8.86658513,95.0259582 L8.86658513,91.9388103 L8.18121951,91.9388103 L8.18121951,95.0259582 L6.56626393,95.0259582 L6.56626393,91.9388103 L5.87616756,91.9388103 L5.87616756,95.8005431 Z M5.87616756,90.7074265 L11.763275,90.7074265 L11.763275,89.9814372 L6.49914659,89.9814372 L11.763275,87.2026507 L11.763275,86.2360394 L5.87616756,86.2360394 L5.87616756,86.9655629 L10.6834841,86.9655629 L5.87616756,89.4913576 L5.87616756,90.7074265 Z M5.87616756,84.6759724 L11.763275,84.6759724 L11.763275,83.1986652 C11.763275,82.6573393 11.7260204,82.2249855 11.6464849,81.89159 C11.5814372,81.5673246 11.4593251,81.2619084 11.2964103,80.9953688 C11.0507076,80.6177954 10.7142339,80.3017766 10.2775277,80.0658669 C9.84436948,79.8370256 9.36242558,79.7298207 8.82164312,79.7298207 C8.258094,79.7298207 7.76254922,79.8331969 7.34565296,80.0585039 C6.93053073,80.2829274 6.59701372,80.5871655 6.34835432,80.9953688 C6.20081444,81.2286278 6.08402435,81.5087153 6.00094077,81.8447615 C5.91785719,82.1769789 5.87616756,82.6402572 5.87616756,83.2148638 L5.87616756,84.6759724 Z M6.55177604,83.1671517 C6.55177604,82.7942907 6.57513406,82.4823951 6.63042456,82.2285197 C6.68098432,81.9716992 6.76791162,81.7284265 6.90244197,81.4925168 C7.08073165,81.1764979 7.33471313,80.9367595 7.64516779,80.7791918 C7.96242289,80.6177954 8.34945637,80.5350356 8.81247732,80.5350356 C9.27638529,80.5350356 9.6589837,80.6080763 9.95997688,80.7485619 C10.2674748,80.9061295 10.5179083,81.1143544 10.699746,81.4062227 C10.8499469,81.643016 10.9557972,81.8963023 11.009905,82.1769789 C11.0651955,82.4608952 11.0921015,82.784277 11.0921015,83.1671517 L11.0921015,83.8913738 L6.55177604,83.8913738 L6.55177604,83.1671517 Z M5.87616756,78.4622111 L11.763275,78.4622111 L11.763275,74.5854578 L11.0832314,74.5854578 L11.0832314,77.6840919 L8.86658513,77.6840919 L8.86658513,74.5854578 L8.18121951,74.5854578 L8.18121951,77.6840919 L6.56626393,77.6840919 L6.56626393,74.5854578 L5.87616756,74.5854578 L5.87616756,78.4622111 Z M5.87616756,73.362026 L11.763275,73.362026 L11.763275,72.6316189 L6.49914659,72.6316189 L11.763275,69.8545995 L11.763275,68.8897553 L5.87616756,68.8897553 L5.87616756,69.6231076 L10.6834841,69.6231076 L5.87616756,72.1489023 L5.87616756,73.362026 Z M6.55798514,66.8711223 C6.82024541,67.1341277 7.1395702,67.3305719 7.53103875,67.4628109 C7.91275014,67.5944609 8.34413429,67.6701523 8.83140027,67.6701523 C9.34882471,67.6701523 9.79174002,67.5944609 10.1888263,67.4539753 C10.5731988,67.3099556 10.8942976,67.1205799 11.1482791,66.8602251 C11.4034432,66.6081168 11.5876463,66.3018171 11.7127152,65.9631203 C11.8283226,65.6117591 11.8907092,65.2226996 11.8907092,64.80301 C11.8907092,64.5785866 11.8744473,64.3650603 11.8410365,64.1759791 C11.8011209,63.9904322 11.7594312,63.824618 11.7088715,63.6596874 C11.6464849,63.4744349 11.5876463,63.3174563 11.5370866,63.1996487 C11.4856398,63.086848 11.4188181,62.9528418 11.3579099,62.8158905 L10.4277286,62.8158905 L10.4277286,62.8636026 C10.699746,63.1489915 10.8942976,63.4561748 11.0235059,63.7869196 C11.1592189,64.111185 11.2168748,64.4643132 11.2168748,64.8389414 C11.2168748,65.1199125 11.168089,65.3696645 11.0832314,65.6155879 C10.986547,65.8594496 10.835459,66.074743 10.6465252,66.262057 C10.4537476,66.4352342 10.2086363,66.579254 9.90941712,66.6947054 C9.61285901,66.8019103 9.25923636,66.8602251 8.84056608,66.8602251 C8.43638367,66.8602251 8.09370086,66.8019103 7.78975096,66.7061917 C7.48047899,66.6045826 7.23093257,66.4658642 7.03638099,66.284735 C6.82941121,66.0965374 6.68098432,65.8794769 6.58075181,65.6462179 C6.48495437,65.4100136 6.43055089,65.143474 6.43055089,64.848955 C6.43055089,64.4849295 6.49914659,64.1426985 6.62332845,63.8263851 C6.74337092,63.5121334 6.93614848,63.1896351 7.2081659,62.8636026 L7.2081659,62.8158905 L6.27946295,62.8158905 C6.08786808,63.1896351 5.95659011,63.5392291 5.88060263,63.8578986 C5.8010671,64.1697942 5.76233419,64.4849295 5.76233419,64.7929964 C5.76233419,65.2288845 5.83832166,65.6155879 5.971965,65.9693052 C6.10146895,66.3188992 6.30311664,66.6207812 6.55798514,66.8711223 Z M11.763275,61.9455869 L11.763275,59.6324349 L11.1592189,59.6324349 L11.1592189,60.3964171 L6.48495437,60.3964171 L6.48495437,59.6324349 L5.87616756,59.6324349 L5.87616756,61.9455869 L6.48495437,61.9455869 L6.48495437,61.1845499 L11.1592189,61.1845499 L11.1592189,61.9455869 L11.763275,61.9455869 Z M11.763275,54.5016199 L11.763275,53.6710763 L5.87616756,55.8166471 L5.87616756,56.8562991 L11.763275,58.997452 L11.763275,58.1910591 L10.1128388,57.6229319 L10.1128388,55.0835893 L11.763275,54.5016199 Z M9.44077842,57.3840771 L6.56803795,56.3491374 L9.44077842,55.3303962 L9.44077842,57.3840771 Z M11.763275,49.1852578 L8.91832758,49.1852578 L8.91832758,46.6179359 L8.23473598,46.6179359 L8.23473598,49.1852578 L6.56626393,49.1852578 L6.56626393,46.2064929 L5.87616756,46.2064929 L5.87616756,49.9672057 L11.763275,49.9672057 L11.763275,49.1852578 Z M11.763275,43.2536457 L11.1592189,43.2536457 L11.1592189,44.0211621 L6.48495437,44.0211621 L6.48495437,43.2536457 L5.87616756,43.2536457 L5.87616756,45.5685648 L6.48495437,45.5685648 L6.48495437,44.8019319 L11.1592189,44.8019319 L11.1592189,45.5685648 L11.763275,45.5685648 L11.763275,43.2536457 Z M11.763275,37.4589849 L5.87616756,37.4589849 L5.87616756,38.1902755 L10.6834841,38.1902755 L5.87616756,40.7225496 L5.87616756,41.9356733 L11.763275,41.9356733 L11.763275,41.2070333 L6.49914659,41.2070333 L11.763275,38.4344317 L11.763275,37.4589849 Z M11.763275,32.1002121 L11.763275,31.2740864 L5.87616756,33.4064038 L5.87616756,34.4557749 L11.763275,36.5869142 L11.763275,35.7917129 L10.1128388,35.2123941 L10.1128388,32.6786474 L11.763275,32.1002121 Z M9.44077842,34.9756009 L6.56803795,33.9477296 L9.44077842,32.9225091 L9.44077842,34.9756009 Z M11.763275,25.9153136 L5.87616756,25.9153136 L5.87616756,26.6548508 L10.6834841,26.6548508 L5.87616756,29.179762 L5.87616756,30.3940637 L11.763275,30.3940637 L11.763275,29.6598279 L6.49914659,29.6598279 L11.763275,26.8872263 L11.763275,25.9153136 Z M6.55798514,23.9022764 C6.82024541,24.1652819 7.1395702,24.3552466 7.53103875,24.4957322 C7.91275014,24.6291493 8.34413429,24.694827 8.83140027,24.694827 C9.34882471,24.694827 9.79174002,24.6229644 10.1888263,24.4860131 C10.5731988,24.3408152 10.8942976,24.1417204 11.1482791,23.8949135 C11.4034432,23.6419217 11.5876463,23.3382726 11.7127152,22.9869115 C11.8283226,22.6411462 11.8907092,22.2635729 11.8907092,21.8359313 C11.8907092,21.6070901 11.8744473,21.404461 11.8410365,21.2159689 C11.8011209,21.0233535 11.7594312,20.8487037 11.7088715,20.6952593 C11.6464849,20.4991097 11.5876463,20.3459598 11.5370866,20.2287413 C11.4856398,20.1127008 11.4188181,19.9881193 11.3579099,19.8387981 L10.4277286,19.8387981 L10.4277286,19.8918116 C10.699746,20.1810292 10.8942976,20.489096 11.0235059,20.814245 C11.1592189,21.1393939 11.2168748,21.4863373 11.2168748,21.8674448 C11.2168748,22.1401694 11.168089,22.3978735 11.0832314,22.6411462 C10.986547,22.8879531 10.835459,23.1005958 10.6465252,23.289677 C10.4537476,23.4643267 10.2086363,23.5968603 9.90941712,23.7184966 C9.61285901,23.8310029 9.25923636,23.8831327 8.84056608,23.8831327 C8.43638367,23.8831327 8.09370086,23.8374823 7.78975096,23.7346951 C7.48047899,23.6389765 7.23093257,23.4914225 7.03638099,23.3102933 C6.82941121,23.1282806 6.68098432,22.9123982 6.58075181,22.6753104 C6.48495437,22.4394007 6.43055089,22.1790459 6.43055089,21.8674448 C6.43055089,21.513433 6.49914659,21.1747362 6.62332845,20.8522379 C6.74337092,20.5368081 6.93614848,20.2181386 7.2081659,19.8956403 L7.2081659,19.8387981 L6.27946295,19.8387981 C6.08786808,20.2181386 5.95659011,20.5721504 5.88060263,20.8864021 C5.8010671,21.1988868 5.76233419,21.513433 5.76233419,21.8321026 C5.76233419,22.2635729 5.83832166,22.6473311 5.971965,23.0039936 C6.10146895,23.3544711 6.30311664,23.6554695 6.55798514,23.9022764 Z M6.48495437,18.2021562 L11.1592189,18.2021562 L11.1592189,18.967611 L11.763275,18.967611 L11.763275,16.6644726 L11.1592189,16.6644726 L11.1592189,17.4246261 L6.48495437,17.4246261 L6.48495437,16.6644726 L5.87616756,16.6644726 L5.87616756,18.967611 L6.48495437,18.967611 L6.48495437,18.2021562 Z M11.763275,11.4688634 L11.0832314,11.4688634 L11.0832314,14.5639633 L8.86658513,14.5639633 L8.86658513,11.4688634 L8.18121951,11.4688634 L8.18121951,14.5639633 L6.56626393,14.5639633 L6.56626393,11.4688634 L5.87616756,11.4688634 L5.87616756,15.3411989 L11.763275,15.3411989 L11.763275,11.4688634 Z M11.763275,9.46260014 L9.42569919,9.46260014 L9.42569919,8.36934571 L11.763275,6.41079453 L11.763275,5.40118348 L9.19596275,7.59093206 C9.04930988,7.22602305 8.83140027,6.93415474 8.54400796,6.72445723 C8.26252906,6.51004742 7.91097612,6.40195896 7.48047899,6.40195896 C7.16292822,6.40195896 6.91249479,6.46410246 6.69902025,6.58102649 C6.49914659,6.69382726 6.32470063,6.86847701 6.20081444,7.07846904 C6.07515422,7.26283792 5.99384467,7.48196004 5.94860699,7.71521907 C5.89686454,7.94847809 5.87616756,8.24388063 5.87616756,8.60260474 L5.87616756,10.2374796 L11.763275,10.2374796 L11.763275,9.46260014 Z M8.77167471,9.46260014 L6.55177604,9.46260014 L6.55177604,8.54046123 C6.55177604,8.33135276 6.56626393,8.15287426 6.59701372,7.99619017 C6.63042456,7.84215674 6.68098432,7.70815061 6.75342374,7.59093206 C6.84744715,7.46134371 6.9532974,7.36120726 7.08782776,7.30348154 C7.21644469,7.24222159 7.36280189,7.21335873 7.5345868,7.21335873 C7.75722714,7.21335873 7.9408389,7.24222159 8.08985714,7.29464597 C8.2273442,7.35502236 8.34945637,7.44396709 8.4606287,7.56471987 C8.58096684,7.68370554 8.65695432,7.84215674 8.70840109,8.02682014 C8.75363877,8.21590132 8.77167471,8.42766047 8.77167471,8.67093314 L8.77167471,9.46260014 Z M11.763275,4.51733204 L10.1128388,3.94920493 L10.1128388,1.40897878 L11.763275,0.823475054 L11.763275,0 L5.87616756,2.13202286 L5.87616756,3.18080493 L11.763275,5.31901269 L11.763275,4.51733204 Z M9.44077842,3.7050487 L6.56803795,2.68424594 L9.44077842,1.65490212 L9.44077842,3.7050487 Z M18.2840055,92.6344641 C17.8526214,92.4044448 17.3662424,92.2937057 16.8346258,92.2937057 C16.2657546,92.2937057 15.7657747,92.4009106 15.3488785,92.6209163 C14.9337562,92.8432781 14.6017176,93.1622421 14.3560149,93.5666167 C14.206701,93.7898621 14.0925719,94.076429 14.0068273,94.4195436 C13.9281788,94.7529391 13.8793931,95.2014915 13.8793931,95.7769816 L13.8793931,97.2407409 L19.7718225,97.2407409 L19.7718225,95.7590159 C19.7718225,95.2185736 19.7319069,94.7871033 19.6568065,94.4575366 C19.580819,94.1323876 19.4678726,93.8243208 19.2996358,93.5666167 C19.0583682,93.1749064 18.7218944,92.8712574 18.2840055,92.6344641 Z M19.0953271,96.4590875 L14.5573669,96.4590875 L14.5573669,95.728386 C14.5573669,95.3699564 14.5819076,95.0574717 14.6336501,94.7941718 C14.6824358,94.5358786 14.7743895,94.2890717 14.9056675,94.0558127 C15.0875052,93.7386158 15.3343906,93.5009389 15.6525327,93.3442549 C15.9674224,93.1749064 16.3571169,93.1045164 16.8210249,93.1045164 C17.2840459,93.1045164 17.6583655,93.1693106 17.9676375,93.3124468 C18.2769094,93.4638296 18.5175857,93.6829517 18.7074066,93.9774706 C18.8546508,94.2142639 18.9551789,94.464605 19.0128348,94.7485213 C19.0716734,95.0259582 19.0953271,95.3511071 19.0953271,95.728386 L19.0953271,96.4590875 Z M19.7718225,87.1575893 L19.0808392,87.1575893 L19.0808392,90.2453262 L16.8742457,90.2453262 L16.8742457,87.1575893 L16.1879931,87.1575893 L16.1879931,90.2453262 L14.5748115,90.2453262 L14.5748115,87.1575893 L13.8793931,87.1575893 L13.8793931,91.0263905 L19.7718225,91.0263905 L19.7718225,87.1575893 Z M19.8439663,79.9424634 C19.8087814,79.750437 19.7591087,79.5855064 19.716532,79.4208703 C19.6568065,79.2332617 19.5944199,79.089242 19.5438601,78.9693727 C19.4885696,78.8524487 19.421748,78.7119631 19.3540393,78.5720666 L18.4451463,78.5720666 L18.4451463,78.6227239 C18.7074066,78.9107635 18.8954534,79.2173577 19.0311664,79.547808 C19.1586007,79.8676556 19.2271964,80.230503 19.2271964,80.6080763 C19.2271964,80.874616 19.1757496,81.1323201 19.0808392,81.379127 C18.9956859,81.6215161 18.8401629,81.8385766 18.6530031,82.0202948 C18.4569731,82.2005404 18.2198449,82.3374917 17.912347,82.4517651 C17.6211109,82.5610316 17.2568441,82.6166957 16.8434959,82.6166957 C16.4511403,82.6166957 16.0966307,82.5707508 15.7873587,82.4644294 C15.4881396,82.3698888 15.2394802,82.2285197 15.0396065,82.0438563 C14.8379588,81.8574258 14.6824358,81.6447831 14.5881167,81.4062227 C14.4923193,81.1764979 14.4417595,80.9087802 14.4417595,80.6177954 C14.4417595,80.2540645 14.5059201,79.9118334 14.6280323,79.5972872 C14.7510315,79.2812683 14.9473571,78.9522906 15.2149395,78.6327375 L15.2149395,78.5720666 L14.2862365,78.5720666 C14.0964157,78.9522906 13.9615896,79.3010011 13.8793931,79.6161364 C13.8113887,79.9333333 13.765264,80.2449344 13.765264,80.5591862 C13.765264,80.9853551 13.8377034,81.3817777 13.9734165,81.7393237 C14.1061728,82.0815547 14.3095945,82.3799025 14.5647587,82.6402572 C14.8234709,82.8967833 15.1469351,83.086159 15.5342642,83.225761 C15.91568,83.3571164 16.3535689,83.4257393 16.8434959,83.4257393 C17.3561896,83.4257393 17.8029486,83.3571164 18.1899821,83.2148638 C18.5808593,83.0835083 18.8954534,82.8835299 19.1494349,82.62936 C19.4090341,82.3698888 19.5944199,82.0683014 19.716532,81.7284265 C19.8350962,81.3682298 19.8983698,80.9853551 19.8983698,80.5691998 C19.8983698,80.3359408 19.8729421,80.130661 19.8439663,79.9424634 Z M14.5573669,77.0597117 C14.828793,77.3003337 15.1525529,77.4814629 15.5431344,77.6119348 C15.9121319,77.7353382 16.3435161,77.8013105 16.829008,77.8013105 C17.3210047,77.8013105 17.7515019,77.7353382 18.1293695,77.6084005 C18.511968,77.4788122 18.8268577,77.3003337 19.090005,77.0670747 C19.3540393,76.8273362 19.557461,76.5428309 19.6884433,76.2041341 C19.8294784,75.8610195 19.8983698,75.5014118 19.8983698,75.0764209 C19.8983698,74.6537862 19.8294784,74.2773909 19.6902173,73.9513584 C19.5636701,73.617963 19.3540393,73.331396 19.090005,73.0937192 C18.8348408,72.8613437 18.5175857,72.6802145 18.1293695,72.5497426 C17.7515019,72.4198598 17.3156827,72.3515314 16.829008,72.3515314 C16.3435161,72.3515314 15.9103579,72.4198598 15.5286465,72.5467974 C15.138952,72.6766803 14.8116441,72.8513301 14.5573669,73.0937192 C14.3024984,73.3278618 14.1008507,73.6052986 13.9651377,73.9513584 C13.8249896,74.2773909 13.7599419,74.6537862 13.7599419,75.0764209 C13.7599419,75.4843297 13.8249896,75.8536565 13.9615896,76.2041341 C14.0964157,76.5463651 14.3007244,76.8302814 14.5573669,77.0597117 Z M15.0603035,73.68099 C15.4736517,73.331396 16.0614458,73.1702941 16.829008,73.1702941 C17.6069187,73.1702941 18.1899821,73.338759 18.6068784,73.68099 C19.0175656,74.0232211 19.2271964,74.4926843 19.2271964,75.0764209 C19.2271964,75.6536781 19.0175656,76.1310934 18.6068784,76.474208 C18.1899821,76.8202678 17.6069187,76.9887326 16.829008,76.9887326 C16.0614458,76.9887326 15.4736517,76.8202678 15.0603035,76.4815709 C14.6371981,76.1419906 14.4334807,75.6763561 14.4334807,75.0764209 C14.4334807,74.4926843 14.6371981,74.0205704 15.0603035,73.68099 Z M19.0808392,70.3390832 L13.8793931,70.3390832 L13.8793931,71.1280995 L19.7718225,71.1280995 L19.7718225,67.3918318 L19.0808392,67.3918318 L19.0808392,70.3390832 Z M14.5573669,66.3018171 C14.828793,66.5424391 15.1525529,66.7297532 15.5431344,66.8602251 C15.9121319,66.9774436 16.3435161,67.0422378 16.829008,67.0422378 C17.3210047,67.0422378 17.7515019,66.9774436 18.1293695,66.8602251 C18.511968,66.7197395 18.8268577,66.5424391 19.090005,66.3053513 C19.3540393,66.074743 19.557461,65.7840527 19.6884433,65.4480066 C19.8294784,65.1199125 19.8983698,64.7308529 19.8983698,64.3202934 C19.8983698,63.9020765 19.8294784,63.530099 19.6902173,63.1931693 C19.5636701,62.8636026 19.3540393,62.5896999 19.090005,62.3402424 C18.8348408,62.1069833 18.5175857,61.9258542 18.1293695,61.7953823 C17.7515019,61.6646158 17.3156827,61.6015888 16.829008,61.6015888 C16.3435161,61.6015888 15.9103579,61.6646158 15.5286465,61.7953823 C15.138952,61.9223199 14.8116441,62.0996204 14.5573669,62.3402424 C14.3024984,62.5796863 14.1008507,62.8571232 13.9651377,63.1896351 C13.8249896,63.530099 13.7599419,63.9020765 13.7599419,64.3202934 C13.7599419,64.7282022 13.8249896,65.1045975 13.9615896,65.4480066 C14.0964157,65.7840527 14.3007244,66.074743 14.5573669,66.3018171 Z M15.0603035,62.9248625 C15.4736517,62.5896999 16.0614458,62.4076872 16.829008,62.4076872 C17.6069187,62.4076872 18.1899821,62.5896999 18.6068784,62.9248625 C19.0175656,63.2706278 19.2271964,63.7383239 19.2271964,64.3202934 C19.2271964,64.9002013 19.0175656,65.3696645 18.6068784,65.7180805 C18.1899821,66.0620787 17.6069187,66.2343723 16.829008,66.2343723 C16.0614458,66.2343723 15.4736517,66.0620787 15.0603035,65.7325119 C14.6371981,65.3811508 14.4334807,64.9172834 14.4334807,64.3202934 C14.4334807,63.7344952 14.6371981,63.2653265 15.0603035,62.9248625 Z M19.7718225,59.6324349 L14.6986977,59.6324349 L18.1530232,58.0199435 L18.1530232,57.5445899 L14.6986977,55.923852 L19.7718225,55.923852 L19.7718225,55.1421986 L13.8793931,55.1421986 L13.8793931,56.2283846 L17.1654817,57.7336711 L13.8793931,59.299334 L13.8793931,60.3666707 L19.7718225,60.3666707 L19.7718225,59.6324349 Z M19.7718225,51.484862 C19.7718225,51.081371 19.7319069,50.7417906 19.6568065,50.4779016 C19.580819,50.2175468 19.4625506,49.9733906 19.2851479,49.7572137 C19.1441128,49.5725503 18.9551789,49.4085032 18.7346083,49.3060106 C18.511968,49.1926208 18.2532557,49.1446142 17.9566976,49.1446142 C17.5542892,49.1446142 17.2151545,49.257415 16.9431371,49.483311 C16.6844249,49.7059674 16.5061352,50.0284657 16.4212776,50.4192923 L16.3923018,50.4192923 C16.2657546,50.1751361 16.1120056,49.9940069 15.9121319,49.8464529 C15.720537,49.699488 15.4881396,49.630276 15.2078433,49.630276 C14.9526792,49.630276 14.7510315,49.6897688 14.5691938,49.7816588 C14.387356,49.8806171 14.2436599,50.0381848 14.1280525,50.2508275 C14.0284113,50.4534565 13.9651377,50.655202 13.9281788,50.8687283 C13.897429,51.081371 13.8793931,51.3929721 13.8793931,51.8282711 L13.8793931,53.572118 L19.7718225,53.572118 L19.7718225,51.484862 Z M16.2477186,52.7866359 L14.5573669,52.7866359 L14.5573669,51.8524217 C14.5573669,51.5911833 14.5691938,51.37589 14.5819076,51.1994731 C14.5981695,51.0218782 14.6434072,50.8778584 14.7093419,50.7417906 C14.7743895,50.6425377 14.8524467,50.5671409 14.9509052,50.5147165 C15.0431545,50.4743674 15.1705888,50.4534565 15.3080759,50.4534565 C15.4881396,50.4534565 15.6282877,50.4743674 15.7474431,50.5256137 C15.8787211,50.5733258 15.9845713,50.6578527 16.0576021,50.7859685 C16.1383203,50.9155568 16.1879931,51.0436726 16.2160818,51.190343 C16.2341178,51.3417258 16.2477186,51.5337521 16.2477186,51.7840933 L16.2477186,52.7866359 Z M19.0953271,52.7866359 L16.9177094,52.7866359 L16.9177094,51.5679163 C16.9177094,51.299315 16.9313102,51.0840217 16.9484592,50.9093719 C16.9718172,50.7273592 17.0152808,50.5697915 17.0841722,50.4534565 C17.1719865,50.2617247 17.2976467,50.1283076 17.4342468,50.0599792 C17.5714382,49.9940069 17.756824,49.9536578 17.9939522,49.9536578 C18.202696,49.9536578 18.3744809,49.9940069 18.4974801,50.0517327 C18.6296451,50.1203556 18.7526442,50.2346289 18.8401629,50.3786487 C18.9442391,50.5147165 19.0066257,50.6923114 19.0382625,50.9229198 C19.0808392,51.1382132 19.0953271,51.4209514 19.0953271,51.7552304 L19.0953271,52.7866359 Z M14.4923193,47.5162188 L19.1586007,47.5162188 L19.1586007,48.2807901 L19.7718225,48.2807901 L19.7718225,45.9738229 L19.1586007,45.9738229 L19.1586007,46.7277915 L14.4923193,46.7277915 L14.4923193,45.9738229 L13.8793931,45.9738229 L13.8793931,48.2807901 L14.4923193,48.2807901 L14.4923193,47.5162188 Z M19.7718225,44.531858 L18.1196124,43.9616693 L18.1196124,41.4223267 L19.7718225,40.8438914 L19.7718225,40.0098137 L13.8793931,42.1527338 L13.8793931,43.1915022 L19.7718225,45.3353058 L19.7718225,44.531858 Z M17.447552,43.7228144 L14.5748115,42.6952377 L17.447552,41.6620651 L17.447552,43.7228144 Z M0,218 L2.23349954,218 L2.23349954,139.982807 L0,139.982807 L0,218 Z M19.7718225,218 L22,218 L22,139.982807 L19.7718225,139.982807 L19.7718225,218 Z" id="Fill-1"></path>
        </g>
    </g>
</svg>