<svg xmlns="http://www.w3.org/2000/svg" viewBox="0 0 64 64" fill="none">
  <path fill="#F5C518" d="M30.8 7.6c14.2-1.2 28.6 8.4 32.2 22.2 2.8 11.2-1.2 23.2-10.6 30.4-6.2 4.8-14.6 6.4-22.2 4.2 12.4-3.6 21.6-14.2 23.2-27.2 1.4-11.2-3.8-22-13.4-27.8 1.2-1.2 3.6-1.8 7.4-1.8z"/>
  <path fill="#3B9326" d="M4.8 33.2C6 16.4 19.8 3.6 36.8 4.4c9.6.4 18.4 5.2 23.8 13.2-12.2-2.4-25.2 3.2-33 14.2-6.6 9.4-8 21.2-3.8 31.6C12.6 58.6 4.2 47.2 4.8 33.2z"/>
  <path fill="#2F7A1E" d="M18.4 20.8c8.2-9.6 21.6-12.4 32.2-6.4-9.2 1.2-17.6 7.2-22.2 15.6-3.6 6.6-4.2 14.2-1.8 21.2-8.2-6.4-12.2-18.2-8.2-30.4z" opacity=".35"/>
</svg>
